<svg xmlns="http://www.w3.org/2000/svg" viewBox="0 0 991 310">
  <g transform="translate(0,360) scale(1,-1)">
    <path d="M29.45 290L6.51 290L86.80 69.90L114.70 69.90L194.68 290L171.74 290L148.18 223.97L53.01 223.97L29.45 290ZM100.75 88.81L60.14 203.51L141.05 203.51L100.75 88.81Z" fill="#b45309"/>
  </g>
  <path d="M269.76 290L245.27 290L319.98 179.33L246.20 69.90L271.31 69.90L333.62 162.90L395.62 69.90L420.42 69.90L346.64 179.33L421.97 290L396.86 290L333.31 195.76L269.76 290ZM473.74 290L452.66 290L452.66 69.90L473.74 69.90L473.74 290ZM612 294.96L612 294.96Q581.31 294.96 559.14 281.01Q536.98 267.06 525.20 241.33Q513.42 215.60 513.42 180.26L513.42 180.26Q513.42 144.61 525.20 118.72Q536.98 92.84 559.14 78.89Q581.31 64.94 612 64.94L612 64.94Q642.69 64.94 664.86 78.89Q687.02 92.84 698.96 118.72Q710.89 144.61 710.89 180.26L710.89 180.26Q710.89 215.60 698.96 241.33Q687.02 267.06 664.86 281.01Q642.69 294.96 612 294.96ZM612 274.19L612 274.19Q647.96 274.19 668.42 249.24Q688.88 224.28 688.88 180.26L688.88 180.26Q688.88 136.24 668.42 110.97Q647.96 85.71 612 85.71L612 85.71Q576.35 85.71 555.89 110.97Q535.43 136.24 535.43 180.26L535.43 180.26Q535.43 224.28 555.89 249.24Q576.35 274.19 612 274.19ZM780.02 290L758.94 290L758.94 69.90L789.32 69.90L864.65 267.06L939.98 69.90L970.36 69.90L970.36 290L949.28 290L949.28 106.17L878.29 290L851.01 290L780.02 106.17L780.02 290Z" fill="#b45309"/>
</svg>